# Blender 4.2.2 LTS
# www.blender.org
mtllib apple_top.mtl
o apple_top
v 0.504266 0.344298 -0.527817
v 0.515349 0.415658 0.556190
v -0.579660 0.288324 -0.528360
v -0.579660 0.288324 0.550052
v 0.173213 0.508950 0.637776
v -0.339918 0.449294 0.600536
v 0.616491 0.456943 -0.265893
v 0.615238 0.475025 0.300984
v -0.670564 0.477369 0.161131
v -0.628493 0.449294 -0.290269
v -0.339918 0.449294 -0.578844
v 0.077580 0.471605 -0.625535
v 0.296188 0.605351 -0.324145
v -0.298350 0.606422 -0.369965
v 0.313987 0.569175 0.025223
v -0.425776 0.612478 0.029662
v 0.140854 0.647060 0.399984
v -0.373794 0.605351 0.345837
v 0.264073 0.192518 0.719512
v -0.223379 0.193636 0.764783
v -0.747469 0.192518 0.313722
v -0.803152 0.209501 0.010846
v -0.747469 0.192518 -0.292030
v 0.669863 0.192518 -0.292030
v 0.725546 0.209501 0.010846
v 0.693362 -0.010156 0.300207
v -0.341679 0.192518 -0.697820
v -0.038803 0.209501 -0.753503
v 0.264073 0.192518 -0.697820
v -0.110291 0.539897 -0.001424
v -0.007574 0.542415 0.058103
v 0.040639 0.534538 -0.000741
v -0.082056 0.536846 -0.071373
v -0.017910 0.742921 -0.073023
v -0.041721 0.753497 0.005682
v 0.022387 0.722568 0.049488
v 0.056954 0.703030 -0.020883
v 0.134893 0.924602 -0.092579
v 0.132875 0.940417 -0.025007
v 0.183861 0.888592 0.026001
v 0.193023 0.860468 -0.031763
v -0.588563 -0.048404 -0.538613
v 0.704289 -0.054901 0.186115
v -0.038803 -0.051167 -0.750005
v 0.684328 -0.054801 0.286388
v 0.269934 -0.052718 -0.681894
v 0.269934 -0.052719 0.703586
v -0.731870 -0.047685 0.319463
v 0.499905 -0.053874 -0.526439
v 0.656122 -0.054659 0.347300
v 0.653812 -0.054648 -0.297937
v -0.081087 -0.050954 0.769363
v -0.799705 -0.047343 0.010846
v -0.588563 -0.048405 0.560305
v -0.347466 -0.049616 -0.682096
v -0.292357 -0.049893 0.724832
v 0.502872 -0.053889 0.549984
v 0.721997 -0.054990 0.010846
v -0.731870 -0.047684 -0.297771
vn -0.0617 0.9805 0.1864
vn -0.0845 0.9958 0.0363
vn 0.0345 0.9040 -0.4262
vn -0.1083 0.8047 -0.5838
vn -0.4425 0.8920 0.0929
vn 0.0896 0.2731 0.9578
vn -0.9181 0.3488 0.1883
vn 0.9589 0.2122 -0.1882
vn 0.7973 -0.0292 0.6029
vn 0.8655 -0.2994 0.4015
vn 0.1881 0.3622 -0.9129
vn 0.3878 0.7390 -0.5510
vn -0.5057 0.6990 -0.5057
vn -0.4872 0.8633 -0.1317
vn -0.5694 0.6734 0.4715
vn -0.1295 0.8435 0.5213
vn 0.3614 0.8474 0.3889
vn 0.3276 0.9441 -0.0356
vn 0.4082 0.9099 0.0734
vn -0.4999 0.0228 0.8658
vn 0.3012 0.3186 0.8987
vn -0.1202 0.4972 0.8592
vn -0.4130 0.3515 0.8402
vn -0.9798 -0.0353 -0.1969
vn -0.8761 0.4610 -0.1411
vn -0.8087 0.4321 0.3991
vn -0.8382 0.0054 -0.5454
vn -0.8194 0.3826 -0.4267
vn 0.1779 0.9173 -0.3562
vn 0.9536 0.2827 0.1038
vn 0.8592 0.2191 -0.4624
vn 0.9093 0.1458 0.3898
vn 0.1972 -0.0353 -0.9797
vn -0.1496 0.4525 -0.8791
vn -0.4290 0.3822 -0.8185
vn 0.5735 -0.0207 -0.8189
vn 0.3220 0.4332 -0.8418
vn -0.1052 0.9640 -0.2444
vn 0.4970 -0.1564 -0.8535
vn 0.2307 0.9713 0.0576
vn 0.6812 -0.5791 0.4479
vn -0.5060 0.1299 0.8527
vn 0.8339 -0.0655 0.5481
vn -0.8954 0.2876 -0.3399
vn 0.7853 0.6028 -0.1413
vn -0.7414 0.6253 -0.2437
vn 0.3874 -0.4044 -0.8285
vn -0.3470 0.4562 0.8194
vn 0.1313 0.0168 0.9912
vn 0.5572 -0.0309 0.8298
vn -0.1971 -0.0352 -0.9797
vn -0.5460 0.0059 -0.8377
vn -0.2057 -0.1014 0.9734
vn 0.9797 -0.0353 -0.1974
vn -0.9798 -0.0353 0.1969
vn 0.8202 -0.0219 -0.5716
vn 0.9494 -0.2507 0.1892
vn -0.8382 0.0054 0.5454
vn 0.9948 -0.0134 0.1005
vn -0.0050 -1.0000 -0.0000
vt 0.797724 0.562500
vt 0.774950 0.599173
vt 0.721104 0.625000
vt 0.687500 0.625000
vt 0.687500 0.562500
vt 0.818128 0.625000
vt 0.812500 0.687500
vt 0.717518 0.687500
vt 0.726413 0.500000
vt 0.812500 0.500000
vt 0.875000 0.655371
vt 0.562500 0.812500
vt 0.625000 0.832942
vt 0.562500 0.912289
vt 0.625000 0.094629
vt 0.562500 0.125000
vt 0.562500 0.062500
vt 0.562500 0.562500
vt 0.625000 0.573311
vt 0.562500 0.625000
vt 0.522439 0.687500
vt 0.625823 0.750000
vt 0.518907 0.750000
vt 0.513529 0.699403
vt 0.514435 0.684661
vt 0.562500 0.375000
vt 0.625000 0.398587
vt 0.562500 0.437500
vt 0.613592 0.500000
vt 0.875000 0.500000
vt 0.875000 0.562500
vt 0.875000 0.750000
vt 0.812500 0.750000
vt 0.707942 0.750000
vt 0.625000 0.687500
vt 0.595842 1.000000
vt 0.517503 1.000000
vt 0.515136 0.925752
vt 0.625000 0.937500
vt 0.562500 0.187500
vt 0.515669 0.187500
vt 0.514314 0.125000
vt 0.625000 0.187500
vt 0.595842 0.000000
vt 0.595842 0.250000
vt 0.517503 0.250000
vt 0.742692 0.649488
vt 0.785587 0.625000
vt 0.514687 0.437500
vt 0.513596 0.375000
vt 0.562500 0.312500
vt 0.625000 0.312500
vt 0.520208 0.500000
vt 0.742692 0.649488
vt 0.785587 0.625000
vt 0.514318 0.883543
vt 0.514687 0.812500
vt 0.515292 0.312500
vt 0.512879 0.625000
vt 0.514311 0.562500
vt 0.515669 0.062500
vt 0.513591 0.662857
vt 0.517503 0.000000
s 0
usemtl apple_red
f 14/1/1 33/2/1 32/3/1 15/4/1 13/5/1
f 16/6/2 18/7/2 17/8/2
f 12/9/3 14/1/3 13/5/3
f 11/10/4 14/1/4 12/9/4
f 16/6/5 9/11/5 18/7/5
f 19/12/6 5/13/6 20/14/6
f 9/15/7 22/16/7 21/17/7
f 24/18/8 7/19/8 25/20/8
f 26/21/9 2/22/9 57/23/9 50/24/9
f 26/21/10 50/24/10 45/25/10
f 28/26/11 12/27/11 29/28/11
f 13/5/12 7/19/12 1/29/12 12/9/12
f 14/1/13 11/10/13 3/30/13 10/31/13
f 16/6/14 14/1/14 10/31/14 9/11/14
f 4/32/15 6/33/15 18/7/15 9/11/15
f 6/33/16 5/34/16 17/8/16 18/7/16
f 2/22/17 8/35/17 17/8/17 5/34/17
f 8/35/18 7/19/18 15/4/18 17/8/18
f 7/19/19 13/5/19 15/4/19
f 4/36/20 54/37/20 56/38/20 20/14/20
f 2/22/21 5/13/21 19/12/21
f 20/14/22 5/13/22 6/39/22
f 20/14/23 6/39/23 4/36/23
f 23/40/24 59/41/24 53/42/24 22/16/24
f 10/43/25 23/40/25 22/16/25 9/15/25
f 4/44/26 9/15/26 21/17/26
f 3/45/27 42/46/27 59/41/27 23/40/27
f 23/40/28 10/43/28 3/45/28
f 16/6/29 17/8/29 31/47/29 30/48/29
f 8/35/30 26/21/30 25/20/30 7/19/30
f 1/29/31 7/19/31 24/18/31
f 26/21/32 8/35/32 2/22/32
f 29/28/33 46/49/33 44/50/33 28/26/33
f 28/26/34 27/51/34 11/52/34 12/27/34
f 3/45/35 11/52/35 27/51/35
f 1/29/36 49/53/36 46/49/36 29/28/36
f 29/28/37 12/27/37 1/29/37
f 32/3/38 31/54/38 17/8/38 15/4/38
f 16/6/40 30/55/40 33/2/40 14/1/40
f 52/56/49 47/57/49 19/12/49 20/14/49
f 47/57/50 57/23/50 2/22/50 19/12/50
f 44/50/51 55/58/51 27/51/51 28/26/51
f 55/58/52 42/46/52 3/45/52 27/51/52
f 56/38/53 52/56/53 20/14/53
f 58/59/54 51/60/54 24/18/54 25/20/54
f 53/42/55 48/61/55 21/17/55 22/16/55
f 51/60/56 49/53/56 1/29/56 24/18/56
f 45/25/57 43/62/57 26/21/57
f 48/61/58 54/63/58 4/44/58 21/17/58
f 43/62/59 58/59/59 25/20/59 26/21/59
f 42/46/60 55/58/60 44/50/60 46/49/60 49/53/60 51/60/60 58/59/60 43/62/60 45/25/60 50/24/60 57/23/60 47/57/60 52/56/60 56/38/60 54/37/60 48/61/60 53/42/60 59/41/60
usemtl brown
f 32/3/39 33/2/39 34/2/39 37/3/39
f 36/54/41 37/3/41 41/3/41 40/54/41
f 30/48/42 31/47/42 36/47/42 35/48/42
f 31/54/43 32/3/43 37/3/43 36/54/43
f 33/2/44 30/55/44 35/55/44 34/2/44
f 39/55/45 40/47/45 41/3/45 38/2/45
f 34/2/46 35/55/46 39/55/46 38/2/46
f 37/3/47 34/2/47 38/2/47 41/3/47
f 35/48/48 36/47/48 40/47/48 39/48/48
