# Blender 4.2.2 LTS
# www.blender.org
mtllib apple.mtl
o apple
v 0.552599 0.329823 -0.519646
v 0.563682 0.401183 0.564362
v -0.531327 0.273849 -0.520189
v -0.449678 -0.521991 0.478226
v -0.446943 -0.752809 -0.124163
v -0.437959 -0.711047 0.254926
v 0.245440 -0.711047 -0.428472
v -0.129292 -0.731504 -0.459273
v 0.546158 -0.258303 -0.517611
v -0.542219 -0.138114 0.570767
v -0.531327 0.273849 0.558223
v 0.546158 -0.258303 0.555645
v -0.542219 -0.138114 -0.532732
v -0.454084 -0.508430 -0.444598
v 0.221546 0.494475 0.645947
v -0.291585 0.434818 0.608707
v 0.664825 0.442468 -0.257721
v 0.663571 0.460550 0.309155
v -0.104196 -0.770645 0.465760
v 0.336472 -0.671457 0.462220
v -0.622231 0.462893 0.169302
v -0.580160 0.434818 -0.282098
v -0.291585 0.434819 -0.570673
v 0.125913 0.457130 -0.617364
v 0.477863 -0.742538 0.149773
v 0.452734 -0.671457 -0.307924
v 0.344522 0.590876 -0.315974
v -0.250017 0.591947 -0.361794
v 0.362320 0.554700 0.033394
v -0.377443 0.598003 0.037833
v 0.189187 0.632585 0.408155
v -0.325460 0.590876 0.354008
v 0.323279 -0.276886 0.698139
v 0.312406 0.178043 0.727683
v 0.009531 -0.471255 0.670011
v 0.009531 -0.138114 0.778895
v -0.175045 0.179161 0.772954
v -0.304219 -0.276886 0.698139
v -0.669592 -0.276886 0.332766
v -0.699136 0.178043 0.321893
v -0.641464 -0.471255 0.019017
v -0.750348 -0.138114 0.019017
v -0.754818 0.195026 0.019017
v -0.669592 -0.276886 -0.294732
v -0.699136 0.178043 -0.283859
v -0.208766 -0.849068 -0.247113
v 0.249979 -0.835749 -0.197548
v -0.205827 -0.875976 0.206573
v 0.093463 -0.852352 0.258036
v 0.688653 -0.276886 -0.294732
v 0.718196 0.178043 -0.283859
v 0.645811 -0.498452 0.161716
v 0.769409 -0.138114 0.019017
v 0.773879 0.195026 0.019017
v 0.741695 -0.024631 0.308378
v -0.304219 -0.276886 -0.660105
v -0.293345 0.178043 -0.689649
v 0.009531 -0.471255 -0.631977
v 0.009531 -0.138114 -0.740861
v 0.009531 0.195026 -0.745332
v 0.323279 -0.276885 -0.660105
v 0.312406 0.178043 -0.689649
v -0.061958 0.525421 0.006747
v 0.040760 0.527941 0.066274
v 0.088973 0.520063 0.007430
v -0.033723 0.522370 -0.063202
v 0.030423 0.728446 -0.064852
v 0.006612 0.739022 0.013854
v 0.070720 0.708093 0.057659
v 0.105287 0.688555 -0.012712
v 0.183227 0.910127 -0.084408
v 0.181209 0.925942 -0.016836
v 0.232194 0.874117 0.034173
v 0.241356 0.845993 -0.023592
v -0.058372 -0.846118 -0.031299
v 0.048051 -0.847293 -0.065954
v 0.019124 -0.845825 0.112832
v -0.103641 -0.842613 0.086963
vn -0.0617 0.9805 0.1864
vn -0.0845 0.9958 0.0363
vn 0.0345 0.9040 -0.4262
vn -0.1083 0.8047 -0.5838
vn -0.4425 0.8920 0.0928
vn 0.1066 -0.3089 0.9451
vn -0.1066 -0.3089 0.9451
vn -0.2057 -0.1014 0.9734
vn 0.0896 0.2731 0.9578
vn -0.3381 -0.5094 0.7914
vn -0.9451 -0.3089 0.1066
vn -0.9451 -0.3089 -0.1066
vn -0.7897 -0.4880 0.3717
vn -0.9181 0.3488 0.1883
vn -0.7875 -0.4984 -0.3625
vn 0.1531 -0.9878 -0.0291
vn 0.4085 -0.7997 -0.4399
vn 0.2910 -0.9545 0.0652
vn 0.3478 -0.8678 0.3548
vn 0.0090 -0.9276 0.3734
vn -0.5616 -0.8209 0.1037
vn 0.9319 -0.3528 -0.0838
vn 0.9589 0.2122 -0.1882
vn 0.7973 -0.0292 0.6029
vn 0.8655 -0.2994 0.4015
vn -0.1066 -0.3089 -0.9451
vn 0.1066 -0.3089 -0.9451
vn -0.3730 -0.4912 -0.7871
vn 0.1881 0.3622 -0.9129
vn 0.3878 0.7390 -0.5510
vn -0.5057 0.6990 -0.5057
vn -0.4872 0.8633 -0.1317
vn -0.5694 0.6734 0.4715
vn -0.1295 0.8435 0.5213
vn 0.3614 0.8474 0.3889
vn 0.3276 0.9441 -0.0355
vn 0.1570 0.0096 0.9876
vn 0.4082 0.9099 0.0734
vn 0.5532 -0.0319 0.8325
vn 0.5119 -0.4282 0.7448
vn -0.4937 0.0173 0.8695
vn 0.3012 0.3186 0.8987
vn -0.1202 0.4972 0.8592
vn -0.4130 0.3515 0.8402
vn 0.1856 -0.5454 0.8174
vn -0.5855 -0.3206 0.7446
vn -0.2271 -0.4885 0.8425
vn -0.9777 -0.0394 0.2064
vn -0.9777 -0.0394 -0.2064
vn -0.8481 -0.0039 0.5298
vn -0.7446 -0.3206 0.5855
vn -0.8761 0.4610 -0.1411
vn -0.8087 0.4321 0.3991
vn -0.8481 -0.0039 -0.5298
vn -0.8194 0.3826 -0.4267
vn -0.8252 -0.5413 0.1617
vn -0.7469 -0.3169 -0.5845
vn -0.8513 -0.4768 -0.2190
vn -0.5128 -0.6761 -0.5291
vn 0.1779 0.9173 -0.3562
vn 0.0808 -0.8802 -0.4676
vn -0.4589 -0.7179 0.5235
vn 0.5689 -0.8073 -0.1566
vn 0.1925 -0.8369 0.5124
vn 0.9777 -0.0393 -0.2064
vn -0.3971 -0.9163 -0.0518
vn 0.8258 -0.0237 -0.5635
vn 0.9494 -0.2507 0.1892
vn 0.9948 -0.0133 0.1005
vn 0.7448 -0.4282 -0.5119
vn 0.9536 0.2827 0.1038
vn 0.8592 0.2191 -0.4624
vn 0.7318 -0.4955 0.4680
vn 0.9093 0.1458 0.3898
vn 0.8381 -0.5240 -0.1515
vn -0.2064 -0.0394 -0.9777
vn 0.2064 -0.0394 -0.9777
vn -0.5303 -0.0033 -0.8478
vn -0.5845 -0.3169 -0.7469
vn -0.1496 0.4525 -0.8791
vn -0.4290 0.3822 -0.8185
vn 0.5649 -0.0226 -0.8248
vn 0.3220 0.4332 -0.8418
vn 0.5046 -0.4769 -0.7197
vn 0.1701 -0.5350 -0.8276
vn -0.2084 -0.4612 -0.8625
vn -0.1052 0.9640 -0.2444
vn 0.4970 -0.1564 -0.8535
vn 0.2307 0.9713 0.0576
vn 0.6812 -0.5791 0.4479
vn -0.5060 0.1299 0.8527
vn 0.8339 -0.0655 0.5481
vn -0.8954 0.2876 -0.3399
vn 0.7853 0.6028 -0.1413
vn -0.7414 0.6253 -0.2437
vn 0.3874 -0.4044 -0.8285
vn -0.3470 0.4562 0.8194
vn 0.0736 -0.9873 -0.1410
vn 0.0191 -0.9997 -0.0183
vn -0.0187 -0.9998 0.0121
vn 0.0220 -0.9995 -0.0215
vt 0.797724 0.562500
vt 0.774950 0.599173
vt 0.721104 0.625000
vt 0.687500 0.625000
vt 0.687500 0.562500
vt 0.818128 0.625000
vt 0.812500 0.687500
vt 0.717518 0.687500
vt 0.726413 0.500000
vt 0.812500 0.500000
vt 0.875000 0.655371
vt 0.473804 0.812500
vt 0.500000 0.875000
vt 0.437500 0.875000
vt 0.473804 0.937500
vt 0.562500 0.912289
vt 0.562500 0.812500
vt 0.625000 0.832942
vt 0.412443 1.000000
vt 0.375000 0.903797
vt 0.473804 0.062500
vt 0.500000 0.125000
vt 0.437500 0.125000
vt 0.473804 0.187500
vt 0.412443 0.000000
vt 0.375000 0.062500
vt 0.625000 0.094629
vt 0.562500 0.125000
vt 0.562500 0.062500
vt 0.416384 0.250000
vt 0.375000 0.161833
vt 0.199605 0.562500
vt 0.228635 0.611019
vt 0.218717 0.650578
vt 0.187500 0.671946
vt 0.312500 0.500000
vt 0.375000 0.529972
vt 0.312500 0.571138
vt 0.375000 0.658774
vt 0.272310 0.684015
vt 0.345028 0.750000
vt 0.221203 0.750000
vt 0.125000 0.687500
vt 0.125000 0.588167
vt 0.473804 0.562500
vt 0.500000 0.625000
vt 0.437500 0.657366
vt 0.562500 0.562500
vt 0.625000 0.573311
vt 0.562500 0.625000
vt 0.522439 0.687500
vt 0.625823 0.750000
vt 0.475658 0.750000
vt 0.473804 0.312500
vt 0.500000 0.375000
vt 0.437500 0.375000
vt 0.473804 0.437500
vt 0.375000 0.338208
vt 0.562500 0.375000
vt 0.625000 0.398587
vt 0.562500 0.437500
vt 0.613592 0.500000
vt 0.875000 0.500000
vt 0.875000 0.562500
vt 0.875000 0.750000
vt 0.812500 0.750000
vt 0.707942 0.750000
vt 0.625000 0.687500
vt 0.595842 1.000000
vt 0.500000 1.000000
vt 0.625000 0.937500
vt 0.375000 0.779972
vt 0.562500 0.187500
vt 0.500000 0.000000
vt 0.595842 0.000000
vt 0.625000 0.187500
vt 0.595842 0.250000
vt 0.500000 0.250000
vt 0.125000 0.500000
vt 0.213208 0.500000
vt 0.742692 0.649488
vt 0.785587 0.625000
vt 0.125000 0.750000
vt 0.475658 0.500000
vt 0.562500 0.312500
vt 0.625000 0.312500
vt 0.375000 0.437500
vt 0.742692 0.649488
vt 0.785587 0.625000
vt 0.218717 0.650578
vt 0.256332 0.657311
vt 0.264972 0.614029
vt 0.228635 0.611019
s 0
usemtl apple_red
f 28/1/1 66/2/1 65/3/1 29/4/1 27/5/1
f 30/6/2 32/7/2 31/8/2
f 24/9/3 28/1/3 27/5/3
f 23/10/4 28/1/4 24/9/4
f 30/6/5 21/11/5 32/7/5
f 33/12/6 36/13/6 35/14/6
f 36/13/7 38/15/7 35/14/7
f 36/13/8 37/16/8 38/15/8
f 34/17/9 15/18/9 37/16/9
f 38/15/10 4/19/10 19/20/10
f 39/21/11 42/22/11 41/23/11
f 42/22/12 44/24/12 41/23/12
f 4/25/13 39/21/13 6/26/13
f 21/27/14 43/28/14 40/29/14
f 44/24/15 14/30/15 5/31/15
f 46/32/16 75/33/16 78/34/16 48/35/16
f 7/36/17 26/37/17 47/38/17
f 47/38/18 25/39/18 49/40/18
f 25/39/19 20/41/19 49/40/19
f 49/40/20 19/42/20 48/35/20
f 48/35/21 6/43/21 5/44/21
f 50/45/22 53/46/22 52/47/22
f 51/48/23 17/49/23 54/50/23
f 55/51/24 2/52/24 12/53/24
f 55/51/25 12/53/25 52/47/25
f 56/54/26 59/55/26 58/56/26
f 59/55/27 61/57/27 58/56/27
f 14/30/28 56/54/28 8/58/28
f 60/59/29 24/60/29 62/61/29
f 27/5/30 17/49/30 1/62/30 24/9/30
f 28/1/31 23/10/31 3/63/31 22/64/31
f 30/6/32 28/1/32 22/64/32 21/11/32
f 11/65/33 16/66/33 32/7/33 21/11/33
f 16/66/34 15/67/34 31/8/34 32/7/34
f 2/52/35 18/68/35 31/8/35 15/67/35
f 18/68/36 17/49/36 29/4/36 31/8/36
f 36/13/37 33/12/37 34/17/37 37/16/37
f 17/49/38 27/5/38 29/4/38
f 33/12/39 12/53/39 2/52/39 34/17/39
f 20/41/40 12/53/40 33/12/40
f 11/69/41 10/70/41 38/15/41 37/16/41
f 2/52/42 15/18/42 34/17/42
f 37/16/43 15/18/43 16/71/43
f 37/16/44 16/71/44 11/69/44
f 35/14/45 19/20/45 20/72/45 33/12/45
f 38/15/46 10/70/46 4/19/46
f 35/14/47 38/15/47 19/20/47
f 42/22/48 39/21/48 40/29/48 43/28/48
f 45/73/49 44/24/49 42/22/49 43/28/49
f 39/21/50 10/74/50 11/75/50 40/29/50
f 4/25/51 10/74/51 39/21/51
f 22/76/52 45/73/52 43/28/52 21/27/52
f 11/75/53 21/27/53 40/29/53
f 3/77/54 13/78/54 44/24/54 45/73/54
f 45/73/55 22/76/55 3/77/55
f 41/23/56 5/31/56 6/26/56 39/21/56
f 44/24/57 13/78/57 14/30/57
f 41/23/58 44/24/58 5/31/58
f 5/44/59 14/79/59 8/80/59 46/32/59
f 30/6/60 31/8/60 64/81/60 63/82/60
f 46/32/61 8/80/61 7/36/61 47/38/61
f 19/42/62 4/83/62 6/43/62 48/35/62
f 47/38/63 26/37/63 25/39/63
f 49/40/64 20/41/64 19/42/64
f 53/46/65 50/45/65 51/48/65 54/50/65
f 46/32/66 48/35/66 5/44/66
f 50/45/67 9/84/67 1/62/67 51/48/67
f 53/46/68 55/51/68 52/47/68
f 53/46/69 54/50/69 55/51/69
f 26/37/70 9/84/70 50/45/70
f 18/68/71 55/51/71 54/50/71 17/49/71
f 1/62/72 17/49/72 51/48/72
f 20/41/73 25/39/73 52/47/73 12/53/73
f 55/51/74 18/68/74 2/52/74
f 52/47/75 25/39/75 26/37/75 50/45/75
f 59/55/76 56/54/76 57/85/76 60/59/76
f 62/61/77 61/57/77 59/55/77 60/59/77
f 56/54/78 13/78/78 3/77/78 57/85/78
f 14/30/79 13/78/79 56/54/79
f 60/59/80 57/85/80 23/86/80 24/60/80
f 3/77/81 23/86/81 57/85/81
f 1/62/82 9/84/82 61/57/82 62/61/82
f 62/61/83 24/60/83 1/62/83
f 26/37/84 7/87/84 61/57/84 9/84/84
f 7/87/85 8/58/85 58/56/85 61/57/85
f 8/58/86 56/54/86 58/56/86
f 65/3/87 64/88/87 31/8/87 29/4/87
f 30/6/89 63/89/89 66/2/89 28/1/89
f 48/35/98 78/90/98 77/91/98 49/40/98
f 47/38/99 49/40/99 77/91/99 76/92/99
f 75/33/100 76/92/100 77/91/100 78/90/100
f 76/92/101 75/93/101 46/32/101 47/38/101
usemtl brown
f 65/3/88 66/2/88 67/2/88 70/3/88
f 69/88/90 70/3/90 74/3/90 73/88/90
f 63/82/91 64/81/91 69/81/91 68/82/91
f 64/88/92 65/3/92 70/3/92 69/88/92
f 66/2/93 63/89/93 68/89/93 67/2/93
f 72/89/94 73/81/94 74/3/94 71/2/94
f 67/2/95 68/89/95 72/89/95 71/2/95
f 70/3/96 67/2/96 71/2/96 74/3/96
f 68/82/97 69/81/97 73/81/97 72/82/97
